<mxfile host="app.diagrams.net" agent="Mozilla/5.0 (Windows NT 10.0; Win64; x64) AppleWebKit/537.36 (KHTML, like Gecko) Chrome/129.0.0.0 Safari/537.36" version="24.8.3">
  <diagram name="Page-1" id="-a5QCyfUtRHze6FJyRC8">
    <mxGraphModel dx="808" dy="454" grid="1" gridSize="10" guides="1" tooltips="1" connect="1" arrows="1" fold="1" page="1" pageScale="1" pageWidth="827" pageHeight="1169" math="0" shadow="0">
      <root>
        <mxCell id="0" />
        <mxCell id="1" parent="0" />
        <mxCell id="GnSwyA_P6bUMeBboWfVk-8" value="AWS Cloud" style="points=[[0,0],[0.25,0],[0.5,0],[0.75,0],[1,0],[1,0.25],[1,0.5],[1,0.75],[1,1],[0.75,1],[0.5,1],[0.25,1],[0,1],[0,0.75],[0,0.5],[0,0.25]];outlineConnect=0;gradientColor=none;html=1;whiteSpace=wrap;fontSize=12;fontStyle=0;container=1;pointerEvents=0;collapsible=0;recursiveResize=0;shape=mxgraph.aws4.group;grIcon=mxgraph.aws4.group_aws_cloud_alt;strokeColor=#232F3E;fillColor=none;verticalAlign=top;align=left;spacingLeft=30;fontColor=#232F3E;dashed=0;movable=0;resizable=0;rotatable=0;deletable=0;editable=0;locked=1;connectable=0;" parent="1" vertex="1">
          <mxGeometry x="240" y="80" width="510" height="350" as="geometry" />
        </mxCell>
        <mxCell id="GnSwyA_P6bUMeBboWfVk-18" value="" style="edgeStyle=orthogonalEdgeStyle;html=1;endArrow=block;elbow=vertical;startArrow=none;endFill=1;strokeColor=#000000;rounded=0;strokeWidth=3;" parent="GnSwyA_P6bUMeBboWfVk-8" edge="1">
          <mxGeometry width="100" relative="1" as="geometry">
            <mxPoint x="120" y="141" as="sourcePoint" />
            <mxPoint x="220" y="141" as="targetPoint" />
          </mxGeometry>
        </mxCell>
        <mxCell id="GnSwyA_P6bUMeBboWfVk-19" value="" style="edgeStyle=orthogonalEdgeStyle;html=1;endArrow=block;elbow=vertical;startArrow=none;endFill=1;strokeColor=#000000;rounded=0;strokeWidth=3;" parent="GnSwyA_P6bUMeBboWfVk-8" edge="1">
          <mxGeometry width="100" relative="1" as="geometry">
            <mxPoint x="300" y="140" as="sourcePoint" />
            <mxPoint x="400" y="140" as="targetPoint" />
          </mxGeometry>
        </mxCell>
        <mxCell id="GnSwyA_P6bUMeBboWfVk-1" value="&lt;h1 style=&quot;margin-top: 0px;&quot;&gt;&lt;u&gt;Text Narrator using Amazon Polly&lt;/u&gt;&lt;/h1&gt;" style="text;html=1;whiteSpace=wrap;overflow=hidden;rounded=0;" parent="1" vertex="1">
          <mxGeometry x="214" y="20" width="400" height="50" as="geometry" />
        </mxCell>
        <mxCell id="GnSwyA_P6bUMeBboWfVk-3" value="" style="sketch=0;points=[[0,0,0],[0.25,0,0],[0.5,0,0],[0.75,0,0],[1,0,0],[0,1,0],[0.25,1,0],[0.5,1,0],[0.75,1,0],[1,1,0],[0,0.25,0],[0,0.5,0],[0,0.75,0],[1,0.25,0],[1,0.5,0],[1,0.75,0]];outlineConnect=0;fontColor=#232F3E;fillColor=#01A88D;strokeColor=#ffffff;dashed=0;verticalLabelPosition=bottom;verticalAlign=top;align=center;html=1;fontSize=12;fontStyle=0;aspect=fixed;shape=mxgraph.aws4.resourceIcon;resIcon=mxgraph.aws4.polly;" parent="1" vertex="1">
          <mxGeometry x="463.5" y="187.5" width="63" height="63" as="geometry" />
        </mxCell>
        <mxCell id="GnSwyA_P6bUMeBboWfVk-4" value="" style="sketch=0;outlineConnect=0;fontColor=#232F3E;gradientColor=none;fillColor=#7AA116;strokeColor=none;dashed=0;verticalLabelPosition=bottom;verticalAlign=top;align=center;html=1;fontSize=12;fontStyle=0;aspect=fixed;pointerEvents=1;shape=mxgraph.aws4.bucket;" parent="1" vertex="1">
          <mxGeometry x="650" y="180" width="65.38" height="68" as="geometry" />
        </mxCell>
        <mxCell id="GnSwyA_P6bUMeBboWfVk-5" value="" style="sketch=0;outlineConnect=0;fontColor=#232F3E;gradientColor=none;fillColor=#ED7100;strokeColor=none;dashed=0;verticalLabelPosition=bottom;verticalAlign=top;align=center;html=1;fontSize=12;fontStyle=0;aspect=fixed;pointerEvents=1;shape=mxgraph.aws4.lambda_function;" parent="1" vertex="1">
          <mxGeometry x="280" y="190" width="63" height="63" as="geometry" />
        </mxCell>
        <mxCell id="GnSwyA_P6bUMeBboWfVk-7" value="" style="sketch=0;outlineConnect=0;fontColor=#232F3E;gradientColor=none;fillColor=#232F3D;strokeColor=none;dashed=0;verticalLabelPosition=bottom;verticalAlign=top;align=center;html=1;fontSize=12;fontStyle=0;aspect=fixed;pointerEvents=1;shape=mxgraph.aws4.documents;" parent="1" vertex="1">
          <mxGeometry x="60" y="178" width="57.44" height="70" as="geometry" />
        </mxCell>
        <mxCell id="GnSwyA_P6bUMeBboWfVk-9" value="&lt;font style=&quot;font-size: 14px;&quot;&gt;Simple&lt;/font&gt;&lt;div&gt;&lt;font size=&quot;3&quot;&gt;Storage&lt;/font&gt;&lt;/div&gt;&lt;div&gt;&lt;font size=&quot;3&quot;&gt;Service&lt;/font&gt;&lt;/div&gt;&lt;div&gt;&lt;font size=&quot;3&quot;&gt;(S3)&lt;/font&gt;&lt;/div&gt;" style="text;html=1;align=center;verticalAlign=middle;whiteSpace=wrap;rounded=0;" parent="1" vertex="1">
          <mxGeometry x="640" y="260" width="80" height="60" as="geometry" />
        </mxCell>
        <mxCell id="GnSwyA_P6bUMeBboWfVk-10" value="&lt;font style=&quot;font-size: 14px;&quot;&gt;Amaxon Polly&lt;/font&gt;" style="text;html=1;align=center;verticalAlign=middle;whiteSpace=wrap;rounded=0;" parent="1" vertex="1">
          <mxGeometry x="463.5" y="260" width="60" height="30" as="geometry" />
        </mxCell>
        <mxCell id="GnSwyA_P6bUMeBboWfVk-11" value="&lt;font style=&quot;font-size: 14px;&quot;&gt;Lambda&lt;/font&gt;" style="text;html=1;align=center;verticalAlign=middle;whiteSpace=wrap;rounded=0;" parent="1" vertex="1">
          <mxGeometry x="280" y="260" width="60" height="30" as="geometry" />
        </mxCell>
        <mxCell id="GnSwyA_P6bUMeBboWfVk-12" value="&lt;font style=&quot;font-size: 14px;&quot;&gt;Article, book, newsletter, etc...&lt;/font&gt;" style="text;html=1;align=center;verticalAlign=middle;whiteSpace=wrap;rounded=0;" parent="1" vertex="1">
          <mxGeometry x="28.08" y="253" width="121.28" height="50" as="geometry" />
        </mxCell>
        <mxCell id="GnSwyA_P6bUMeBboWfVk-14" value="" style="rounded=1;whiteSpace=wrap;html=1;" parent="1" vertex="1">
          <mxGeometry x="28.080000000000013" y="340" width="120" height="60" as="geometry" />
        </mxCell>
        <mxCell id="GnSwyA_P6bUMeBboWfVk-15" value="Audio File Output" style="text;html=1;align=center;verticalAlign=middle;whiteSpace=wrap;rounded=0;" parent="1" vertex="1">
          <mxGeometry x="57.44" y="355" width="60" height="30" as="geometry" />
        </mxCell>
        <mxCell id="GnSwyA_P6bUMeBboWfVk-16" value="" style="edgeStyle=orthogonalEdgeStyle;html=1;endArrow=block;elbow=vertical;startArrow=none;endFill=1;strokeColor=#000000;rounded=0;strokeWidth=3;" parent="1" edge="1">
          <mxGeometry width="100" relative="1" as="geometry">
            <mxPoint x="130" y="221" as="sourcePoint" />
            <mxPoint x="270" y="221" as="targetPoint" />
          </mxGeometry>
        </mxCell>
        <mxCell id="GnSwyA_P6bUMeBboWfVk-22" value="" style="line;strokeWidth=3;direction=south;html=1;" parent="1" vertex="1">
          <mxGeometry x="682.8800000000001" y="340" width="10" height="30" as="geometry" />
        </mxCell>
        <mxCell id="GnSwyA_P6bUMeBboWfVk-23" value="" style="edgeStyle=orthogonalEdgeStyle;html=1;endArrow=none;elbow=vertical;startArrow=block;startFill=1;strokeColor=#000000;rounded=0;strokeWidth=3;" parent="1" edge="1">
          <mxGeometry width="100" relative="1" as="geometry">
            <mxPoint x="170" y="370" as="sourcePoint" />
            <mxPoint x="687.69" y="369.5" as="targetPoint" />
          </mxGeometry>
        </mxCell>
        <mxCell id="VqJvo6o6UqtbqxokDuUy-1" value="&lt;font style=&quot;font-size: 14px;&quot;&gt;Retrieves Text&lt;/font&gt;" style="text;html=1;align=center;verticalAlign=middle;whiteSpace=wrap;rounded=0;" vertex="1" parent="1">
          <mxGeometry x="130" y="180" width="100" height="30" as="geometry" />
        </mxCell>
        <mxCell id="VqJvo6o6UqtbqxokDuUy-2" value="&lt;font style=&quot;font-size: 14px;&quot;&gt;Text Synthesis&lt;/font&gt;" style="text;html=1;align=center;verticalAlign=middle;whiteSpace=wrap;rounded=0;" vertex="1" parent="1">
          <mxGeometry x="350" y="180" width="100" height="30" as="geometry" />
        </mxCell>
        <mxCell id="VqJvo6o6UqtbqxokDuUy-3" value="&lt;font style=&quot;font-size: 14px;&quot;&gt;Audio Stored&lt;/font&gt;" style="text;html=1;align=center;verticalAlign=middle;whiteSpace=wrap;rounded=0;" vertex="1" parent="1">
          <mxGeometry x="540" y="180" width="90" height="30" as="geometry" />
        </mxCell>
        <mxCell id="VqJvo6o6UqtbqxokDuUy-4" value="&lt;font style=&quot;font-size: 14px;&quot;&gt;Download Audio File&lt;/font&gt;" style="text;html=1;align=center;verticalAlign=middle;whiteSpace=wrap;rounded=0;" vertex="1" parent="1">
          <mxGeometry x="350" y="330" width="130" height="30" as="geometry" />
        </mxCell>
        <mxCell id="VqJvo6o6UqtbqxokDuUy-5" value="" style="rounded=0;whiteSpace=wrap;html=1;fillColor=#EAEDED;fontSize=22;fontColor=#FFFFFF;strokeColor=none;labelBackgroundColor=none;" vertex="1" parent="1">
          <mxGeometry x="810" y="80" width="539" height="1220" as="geometry" />
        </mxCell>
        <mxCell id="VqJvo6o6UqtbqxokDuUy-6" value="1" style="rounded=1;whiteSpace=wrap;html=1;fillColor=#007CBD;strokeColor=none;fontColor=#FFFFFF;fontStyle=1;fontSize=22;labelBackgroundColor=none;" vertex="1" parent="1">
          <mxGeometry x="74.57" y="130" width="25.75" height="30" as="geometry" />
        </mxCell>
        <mxCell id="VqJvo6o6UqtbqxokDuUy-7" value="2" style="rounded=1;whiteSpace=wrap;html=1;fillColor=#007CBD;strokeColor=none;fontColor=#FFFFFF;fontStyle=1;fontSize=22;labelBackgroundColor=none;" vertex="1" parent="1">
          <mxGeometry x="298.63" y="130" width="25.75" height="30" as="geometry" />
        </mxCell>
        <mxCell id="VqJvo6o6UqtbqxokDuUy-8" value="3" style="rounded=1;whiteSpace=wrap;html=1;fillColor=#007CBD;strokeColor=none;fontColor=#FFFFFF;fontStyle=1;fontSize=22;labelBackgroundColor=none;" vertex="1" parent="1">
          <mxGeometry x="480.63" y="130" width="25.75" height="30" as="geometry" />
        </mxCell>
        <mxCell id="VqJvo6o6UqtbqxokDuUy-9" value="4" style="rounded=1;whiteSpace=wrap;html=1;fillColor=#007CBD;strokeColor=none;fontColor=#FFFFFF;fontStyle=1;fontSize=22;labelBackgroundColor=none;" vertex="1" parent="1">
          <mxGeometry x="667.13" y="130" width="25.75" height="30" as="geometry" />
        </mxCell>
        <mxCell id="VqJvo6o6UqtbqxokDuUy-10" value="&lt;span style=&quot;font-size: 14px;&quot;&gt;Choose a suitable article, book, newsletter, etc...content to be translated from text-to-speech.&lt;/span&gt;" style="text;html=1;align=left;verticalAlign=middle;whiteSpace=wrap;rounded=0;" vertex="1" parent="1">
          <mxGeometry x="904.5" y="120" width="350" height="50" as="geometry" />
        </mxCell>
        <mxCell id="VqJvo6o6UqtbqxokDuUy-11" value="1" style="rounded=1;whiteSpace=wrap;html=1;fillColor=#007CBD;strokeColor=none;fontColor=#FFFFFF;fontStyle=1;fontSize=22;labelBackgroundColor=none;" vertex="1" parent="1">
          <mxGeometry x="850" y="130" width="25.75" height="30" as="geometry" />
        </mxCell>
        <mxCell id="VqJvo6o6UqtbqxokDuUy-12" value="2" style="rounded=1;whiteSpace=wrap;html=1;fillColor=#007CBD;strokeColor=none;fontColor=#FFFFFF;fontStyle=1;fontSize=22;labelBackgroundColor=none;" vertex="1" parent="1">
          <mxGeometry x="850" y="204" width="25.75" height="30" as="geometry" />
        </mxCell>
        <mxCell id="VqJvo6o6UqtbqxokDuUy-13" value="3" style="rounded=1;whiteSpace=wrap;html=1;fillColor=#007CBD;strokeColor=none;fontColor=#FFFFFF;fontStyle=1;fontSize=22;labelBackgroundColor=none;" vertex="1" parent="1">
          <mxGeometry x="850" y="273" width="25.75" height="30" as="geometry" />
        </mxCell>
        <mxCell id="VqJvo6o6UqtbqxokDuUy-14" value="4" style="rounded=1;whiteSpace=wrap;html=1;fillColor=#007CBD;strokeColor=none;fontColor=#FFFFFF;fontStyle=1;fontSize=22;labelBackgroundColor=none;" vertex="1" parent="1">
          <mxGeometry x="850" y="340" width="25.75" height="30" as="geometry" />
        </mxCell>
        <mxCell id="VqJvo6o6UqtbqxokDuUy-15" value="&lt;span style=&quot;font-size: 14px;&quot;&gt;A lambda function to retrieve the text and send it to Amazon Polly for synthesis.&amp;nbsp;&lt;/span&gt;" style="text;html=1;align=left;verticalAlign=middle;whiteSpace=wrap;rounded=0;" vertex="1" parent="1">
          <mxGeometry x="904.5" y="200" width="350" height="34" as="geometry" />
        </mxCell>
        <mxCell id="VqJvo6o6UqtbqxokDuUy-16" value="&lt;span style=&quot;font-size: 14px;&quot;&gt;Choose the required language and a voice model provided. Amazon Polly converts the text-to-speech and stores the audio file in the S3 bucket.&lt;/span&gt;" style="text;html=1;align=left;verticalAlign=middle;whiteSpace=wrap;rounded=0;" vertex="1" parent="1">
          <mxGeometry x="904.5" y="270" width="350" height="50" as="geometry" />
        </mxCell>
        <mxCell id="VqJvo6o6UqtbqxokDuUy-17" value="&lt;span style=&quot;font-size: 14px;&quot;&gt;The S3 bucket consists of the final text-to-speech audio which can be downloaded.&lt;/span&gt;" style="text;html=1;align=left;verticalAlign=middle;whiteSpace=wrap;rounded=0;" vertex="1" parent="1">
          <mxGeometry x="904.5" y="340" width="350" height="40" as="geometry" />
        </mxCell>
      </root>
    </mxGraphModel>
  </diagram>
</mxfile>
